<svg width="128" height="129" viewBox="0 0 128 129" fill="none" xmlns="http://www.w3.org/2000/svg">
<g filter="url(#filter0_d_1_475)">
<rect x="16" y="16.27" width="96" height="96" rx="48" fill="white" shape-rendering="crispEdges"/>
<path d="M64 88.265C62.779 88.265 61.56 87.821 60.608 86.934L38.963 66.727C38.352 66.157 38 65.348 38 64.509V63.363C38 61.661 39.346 60.27 41 60.27H47.002C48.655 60.27 50 58.93 50 57.277V43.275C50 41.621 51.346 40.27 53 40.27H75C76.654 40.27 78 41.621 78 43.275V57.336C78 58.957 79.318 60.27 80.939 60.27H87C88.654 60.27 90 61.661 90 63.364V64.51C90 65.348 89.649 66.156 89.037 66.728L67.392 86.934C66.44 87.821 65.221 88.265 64 88.265ZM41 62.27C40.468 62.27 40 62.784 40 63.364V64.51C40 64.796 40.119 65.071 40.327 65.265L61.973 85.472C63.11 86.533 64.889 86.535 66.026 85.472L87.672 65.265C87.881 65.07 88 64.794 88 64.509V63.363C88 62.784 87.532 62.27 87 62.27H80.939C78.216 62.27 76 60.059 76 57.335V43.275C76 42.723 75.552 42.27 75 42.27H53C52.448 42.27 52 42.723 52 43.275V57.277C52 60.033 49.758 62.27 47.002 62.27H41Z" fill="#003153"/>
<path d="M61 55.27H70V53.27H65V51.27H63V53.27H61C59.346 53.27 58 54.621 58 56.275V60.275C58 61.929 59.346 63.27 61 63.27H67C67.552 63.27 68 63.723 68 64.275V68.275C68 68.827 67.552 69.27 67 69.27H58V71.27H63V73.27H65V71.27H67C68.654 71.27 70 69.929 70 68.275V64.275C70 62.621 68.654 61.27 67 61.27H61C60.448 61.27 60 60.827 60 60.275V56.275C60 55.723 60.448 55.27 61 55.27Z" fill="#D3BA4A"/>
<path d="M86 58.27H82C80.897 58.27 80 57.377 80 56.275V45.27H82V56.27H86V58.27Z" fill="#D3BA4A"/>
<path d="M46 58.27H42V56.27H46V45.27H48V56.275C48 57.377 47.103 58.27 46 58.27Z" fill="#D3BA4A"/>
<rect x="16" y="16.27" width="32" height="32" rx="16" fill="#D3BA4A"/>
<path d="M31.3401 30.5825V32.5513C31.3401 33.4054 31.2489 34.1424 31.0666 34.7622C30.8843 35.3768 30.6213 35.882 30.2776 36.2778C29.939 36.6685 29.5354 36.9575 29.0666 37.145C28.5979 37.3325 28.077 37.4263 27.5041 37.4263C27.0458 37.4263 26.6187 37.369 26.2229 37.2544C25.827 37.1346 25.4703 36.9497 25.1526 36.6997C24.8401 36.4497 24.5692 36.1346 24.3401 35.7544C24.1161 35.369 23.9442 34.9106 23.8244 34.3794C23.7046 33.8481 23.6447 33.2388 23.6447 32.5513V30.5825C23.6447 29.7284 23.7359 28.9966 23.9182 28.3872C24.1057 27.7726 24.3687 27.27 24.7072 26.8794C25.051 26.4888 25.4572 26.2023 25.926 26.02C26.3947 25.8325 26.9156 25.7388 27.4885 25.7388C27.9468 25.7388 28.3713 25.7987 28.7619 25.9185C29.1578 26.033 29.5145 26.2127 29.8322 26.4575C30.15 26.7023 30.4208 27.0174 30.6447 27.4028C30.8687 27.783 31.0406 28.2388 31.1604 28.77C31.2802 29.2961 31.3401 29.9002 31.3401 30.5825ZM29.0822 32.8481V30.2778C29.0822 29.8664 29.0588 29.507 29.0119 29.1997C28.9703 28.8924 28.9052 28.632 28.8166 28.4185C28.7281 28.1997 28.6187 28.0226 28.4885 27.8872C28.3583 27.7518 28.2098 27.6528 28.0432 27.5903C27.8765 27.5278 27.6916 27.4966 27.4885 27.4966C27.2333 27.4966 27.0067 27.5461 26.8088 27.645C26.6161 27.744 26.452 27.9028 26.3166 28.1216C26.1812 28.3351 26.077 28.6216 26.0041 28.981C25.9364 29.3351 25.9026 29.7674 25.9026 30.2778V32.8481C25.9026 33.2596 25.9234 33.6216 25.9651 33.9341C26.0119 34.2466 26.0796 34.5148 26.1682 34.7388C26.2619 34.9575 26.3713 35.1372 26.4963 35.2778C26.6265 35.4132 26.775 35.5122 26.9416 35.5747C27.1135 35.6372 27.301 35.6685 27.5041 35.6685C27.7541 35.6685 27.9755 35.619 28.1682 35.52C28.3661 35.4159 28.5328 35.2544 28.6682 35.0356C28.8088 34.8117 28.913 34.52 28.9807 34.1606C29.0484 33.8013 29.0822 33.3638 29.0822 32.8481ZM35.176 30.606H36.3791C36.7645 30.606 37.0822 30.5409 37.3322 30.4106C37.5822 30.2752 37.7671 30.0877 37.8869 29.8481C38.0119 29.6034 38.0744 29.3195 38.0744 28.9966C38.0744 28.7049 38.0171 28.4471 37.9026 28.2231C37.7932 27.994 37.6239 27.8169 37.3947 27.6919C37.1656 27.5617 36.8765 27.4966 36.5276 27.4966C36.2515 27.4966 35.9963 27.5513 35.7619 27.6606C35.5276 27.77 35.3401 27.9237 35.1994 28.1216C35.0588 28.3195 34.9885 28.5591 34.9885 28.8403H32.7307C32.7307 28.2153 32.8973 27.6711 33.2307 27.2075C33.5692 26.744 34.0223 26.382 34.5901 26.1216C35.1578 25.8612 35.7828 25.731 36.4651 25.731C37.2359 25.731 37.9104 25.856 38.4885 26.106C39.0666 26.3507 39.5171 26.7127 39.8401 27.1919C40.163 27.6711 40.3244 28.2648 40.3244 28.9731C40.3244 29.3325 40.2411 29.6815 40.0744 30.02C39.9078 30.3534 39.6682 30.6554 39.3557 30.9263C39.0484 31.1919 38.6734 31.4054 38.2307 31.5669C37.788 31.7231 37.2906 31.8013 36.7385 31.8013H35.176V30.606ZM35.176 32.3169V31.1528H36.7385C37.3583 31.1528 37.9026 31.2231 38.3713 31.3638C38.8401 31.5044 39.2333 31.7075 39.551 31.9731C39.8687 32.2336 40.1083 32.5435 40.2697 32.9028C40.4312 33.257 40.5119 33.6502 40.5119 34.0825C40.5119 34.6138 40.4104 35.0877 40.2072 35.5044C40.0041 35.9159 39.7177 36.2648 39.3479 36.5513C38.9833 36.8377 38.5562 37.0565 38.0666 37.2075C37.577 37.3534 37.0432 37.4263 36.4651 37.4263C35.9859 37.4263 35.5145 37.3612 35.051 37.231C34.5927 37.0955 34.176 36.895 33.801 36.6294C33.4312 36.3586 33.1343 36.02 32.9104 35.6138C32.6916 35.2023 32.5822 34.7153 32.5822 34.1528H34.8401C34.8401 34.4445 34.913 34.7049 35.0588 34.9341C35.2046 35.1632 35.4052 35.3429 35.6604 35.4731C35.9208 35.6034 36.2098 35.6685 36.5276 35.6685C36.8869 35.6685 37.1942 35.6034 37.4494 35.4731C37.7098 35.3377 37.9078 35.1502 38.0432 34.9106C38.1838 34.6659 38.2541 34.382 38.2541 34.0591C38.2541 33.6424 38.1786 33.3091 38.0276 33.0591C37.8765 32.8039 37.6604 32.6164 37.3791 32.4966C37.0979 32.3768 36.7645 32.3169 36.3791 32.3169H35.176Z" fill="white"/>
</g>
<defs>
<filter id="filter0_d_1_475" x="0" y="0.27002" width="128" height="128" filterUnits="userSpaceOnUse" color-interpolation-filters="sRGB">
<feFlood flood-opacity="0" result="BackgroundImageFix"/>
<feColorMatrix in="SourceAlpha" type="matrix" values="0 0 0 0 0 0 0 0 0 0 0 0 0 0 0 0 0 0 127 0" result="hardAlpha"/>
<feOffset/>
<feGaussianBlur stdDeviation="8"/>
<feComposite in2="hardAlpha" operator="out"/>
<feColorMatrix type="matrix" values="0 0 0 0 0 0 0 0 0 0 0 0 0 0 0 0 0 0 0.16 0"/>
<feBlend mode="normal" in2="BackgroundImageFix" result="effect1_dropShadow_1_475"/>
<feBlend mode="normal" in="SourceGraphic" in2="effect1_dropShadow_1_475" result="shape"/>
</filter>
</defs>
</svg>
