<svg width="128" height="129" viewBox="0 0 128 129" fill="none" xmlns="http://www.w3.org/2000/svg">
<g filter="url(#filter0_d_1_444)">
<rect x="16" y="16.27" width="96" height="96" rx="48" fill="white" shape-rendering="crispEdges"/>
<path d="M65.004 90.27H62.996C60.793 90.27 59 88.477 59 86.274V85.113C59 84.26 58.429 83.494 57.578 83.204C56.759 82.926 55.946 82.588 55.163 82.201C54.355 81.803 53.403 81.939 52.799 82.542L51.978 83.365C50.419 84.924 47.884 84.924 46.326 83.365L44.906 81.945C43.347 80.387 43.347 77.851 44.906 76.294L45.729 75.471C46.333 74.867 46.469 73.917 46.07 73.107C45.683 72.325 45.345 71.512 45.067 70.693C44.776 69.841 44.01 69.27 43.157 69.27H41.996C39.793 69.27 38 67.477 38 65.274V63.266C38 61.063 39.793 59.27 41.996 59.27H43.157C44.01 59.27 44.776 58.699 45.066 57.848C45.344 57.029 45.682 56.216 46.069 55.433C46.469 54.623 46.332 53.673 45.728 53.069L44.905 52.248C43.346 50.689 43.346 48.153 44.905 46.596L46.325 45.176C47.883 43.618 50.417 43.616 51.976 45.176L52.8 46C53.404 46.604 54.355 46.741 55.163 46.341C55.936 45.959 56.749 45.623 57.575 45.343C58.428 45.053 59 44.287 59 43.433V43.27C59 40.513 61.243 38.27 64 38.27V40.27C62.346 40.27 61 41.616 61 43.27V43.433C61 45.143 59.883 46.672 58.219 47.237C57.475 47.489 56.744 47.791 56.048 48.134C54.469 48.911 52.595 48.622 51.386 47.413L50.562 46.589C49.784 45.809 48.518 45.811 47.74 46.589L46.32 48.009C45.542 48.787 45.542 50.054 46.32 50.832L47.143 51.653C48.354 52.864 48.643 54.739 47.863 56.318C47.514 57.024 47.211 57.755 46.96 58.492C46.394 60.154 44.866 61.27 43.157 61.27H41.996C40.896 61.27 40 62.166 40 63.266V65.274C40 66.374 40.896 67.27 41.996 67.27H43.157C44.866 67.27 46.393 68.386 46.959 70.047C47.21 70.784 47.514 71.515 47.862 72.22C48.641 73.799 48.352 75.674 47.142 76.885L46.319 77.708C45.541 78.485 45.541 79.752 46.319 80.53L47.739 81.95C48.519 82.728 49.784 82.726 50.562 81.95L51.383 81.127C52.595 79.916 54.471 79.627 56.048 80.407C56.754 80.756 57.485 81.059 58.222 81.31C59.884 81.876 61 83.404 61 85.113V86.274C61 87.374 61.896 88.27 62.996 88.27H65.004C66.104 88.27 67 87.374 67 86.274V85.113C67 83.404 68.116 81.877 69.777 81.311C70.514 81.06 71.245 80.756 71.95 80.408C73.529 79.626 75.404 79.915 76.615 81.128L77.438 81.951C78.216 82.731 79.482 82.729 80.26 81.951L81.68 80.531C82.458 79.753 82.458 78.486 81.68 77.708L80.804 76.833C79.618 75.646 79.339 73.818 80.108 72.282C80.469 71.56 80.785 70.809 81.045 70.048C81.611 68.386 83.141 67.27 84.849 67.27H85.001C86.654 67.27 88 65.924 88 64.27H90C90 67.027 87.758 69.27 85.001 69.27H84.849C83.996 69.27 83.229 69.842 82.938 70.694C82.649 71.54 82.299 72.376 81.898 73.177C81.515 73.942 81.644 74.842 82.219 75.418L83.095 76.293C84.654 77.851 84.654 80.387 83.095 81.944L81.675 83.364C80.117 84.922 77.583 84.924 76.024 83.364L75.2 82.541C74.598 81.937 73.649 81.803 72.836 82.2C72.054 82.587 71.241 82.925 70.422 83.203C69.571 83.494 69 84.26 69 85.113V86.274C69 88.477 67.207 90.27 65.004 90.27Z" fill="#003153"/>
<path d="M64 59.27C62.6739 59.27 61.4021 59.7968 60.4645 60.7345C59.5268 61.6721 59 62.9439 59 64.27C59 65.5961 59.5268 66.8679 60.4645 67.8055C61.4021 68.7432 62.6739 69.27 64 69.27C65.3261 69.27 66.5979 68.7432 67.5355 67.8055C68.4732 66.8679 69 65.5961 69 64.27C69 62.9439 68.4732 61.6721 67.5355 60.7345C66.5979 59.7968 65.3261 59.27 64 59.27Z" fill="#D3BA4A"/>
<path d="M64 80.27C55.178 80.27 48 73.092 48 64.27C48 55.448 55.178 48.27 64 48.27V50.27C56.28 50.27 50 56.55 50 64.27C50 71.99 56.28 78.27 64 78.27C71.72 78.27 78 71.99 78 64.27H80C80 73.092 72.822 80.27 64 80.27Z" fill="#003153"/>
<path d="M64 75.27C57.935 75.27 53 70.335 53 64.27C53 58.205 57.935 53.27 64 53.27V55.27C59.037 55.27 55 59.307 55 64.27C55 69.233 59.037 73.27 64 73.27C68.963 73.27 73 69.233 73 64.27H75C75 70.335 70.065 75.27 64 75.27Z" fill="#003153"/>
<path d="M78 62.27C76.346 62.27 75 60.924 75 59.27V58.746C74.689 58.638 74.426 58.527 74.168 58.406L73.757 58.756C72.627 59.888 70.649 59.89 69.515 58.756C68.949 58.19 68.636 57.436 68.636 56.635C68.636 55.833 68.949 55.079 69.515 54.513L69.885 54.144C69.743 53.845 69.633 53.581 69.537 53.311L69 53.27C67.346 53.27 66 51.924 66 50.27C66 48.616 67.346 47.27 69 47.27H69.524C69.632 46.959 69.743 46.696 69.864 46.438L69.514 46.027C68.948 45.462 68.635 44.708 68.635 43.906C68.635 43.105 68.948 42.351 69.514 41.785C70.648 40.651 72.625 40.653 73.757 41.785L74.126 42.155C74.425 42.013 74.689 41.903 74.959 41.807L75 41.27C75 39.616 76.346 38.27 78 38.27C79.654 38.27 81 39.616 81 41.27V41.794C81.311 41.902 81.574 42.013 81.832 42.134L82.243 41.784C83.373 40.652 85.352 40.65 86.485 41.784C87.051 42.35 87.364 43.104 87.364 43.905C87.364 44.707 87.051 45.461 86.485 46.027L86.115 46.396C86.257 46.695 86.367 46.959 86.463 47.229L87 47.27C88.654 47.27 90 48.616 90 50.27C90 51.924 88.654 53.27 87 53.27H86.476C86.368 53.581 86.257 53.844 86.136 54.102L86.486 54.513C87.052 55.078 87.365 55.832 87.365 56.634C87.365 57.435 87.052 58.189 86.486 58.755C85.353 59.889 83.375 59.887 82.243 58.755L81.874 58.385C81.575 58.527 81.311 58.637 81.041 58.733L81 59.27C81 60.924 79.654 62.27 78 62.27ZM74.115 56.391C74.418 56.391 74.726 56.458 75.02 56.596C75.218 56.691 75.421 56.774 75.629 56.848C76.463 57.149 76.999 57.893 76.999 58.745V59.27C76.999 59.822 77.447 60.27 77.999 60.27C78.551 60.27 78.999 59.822 78.999 59.27V58.746C78.999 57.893 79.535 57.149 80.365 56.85C80.577 56.774 80.78 56.691 80.977 56.597C81.776 56.221 82.683 56.368 83.286 56.971L83.656 57.341C84.034 57.721 84.691 57.719 85.07 57.341C85.258 57.152 85.363 56.901 85.363 56.634C85.363 56.366 85.259 56.116 85.07 55.928L84.7 55.557C84.096 54.953 83.95 54.048 84.325 53.249C84.42 53.051 84.503 52.848 84.577 52.64C84.878 51.806 85.622 51.27 86.474 51.27H87C87.552 51.27 88 50.822 88 50.27C88 49.718 87.552 49.27 87 49.27H86.476C85.623 49.27 84.879 48.734 84.58 47.904C84.504 47.692 84.421 47.489 84.327 47.292C83.951 46.492 84.098 45.587 84.701 44.983L85.071 44.613C85.26 44.424 85.364 44.174 85.364 43.906C85.364 43.639 85.26 43.388 85.071 43.199C84.691 42.821 84.034 42.821 83.658 43.199L83.287 43.569C82.684 44.173 81.778 44.319 80.979 43.944C80.781 43.849 80.578 43.766 80.37 43.692C79.536 43.391 79 42.647 79 41.794V41.27C79 40.718 78.552 40.27 78 40.27C77.448 40.27 77 40.718 77 41.27V41.794C77 42.647 76.464 43.391 75.634 43.69C75.422 43.766 75.219 43.849 75.022 43.943C74.224 44.32 73.316 44.172 72.713 43.569L72.343 43.199C71.965 42.821 71.309 42.823 70.929 43.199C70.741 43.388 70.636 43.639 70.636 43.906C70.636 44.174 70.74 44.424 70.929 44.612L71.299 44.983C71.903 45.587 72.049 46.492 71.674 47.291C71.579 47.489 71.496 47.692 71.422 47.9C71.121 48.734 70.377 49.27 69.524 49.27H69C68.448 49.27 68 49.718 68 50.27C68 50.822 68.448 51.27 69 51.27H69.524C70.377 51.27 71.121 51.806 71.42 52.636C71.496 52.848 71.579 53.051 71.673 53.248C72.049 54.048 71.902 54.953 71.299 55.557L70.929 55.927C70.74 56.116 70.636 56.366 70.636 56.634C70.636 56.901 70.74 57.152 70.929 57.341C71.309 57.718 71.966 57.72 72.342 57.341L72.713 56.971C73.094 56.59 73.596 56.391 74.115 56.391Z" fill="#D3BA4A"/>
<path d="M78 54.27C75.794 54.27 74 52.476 74 50.27C74 48.064 75.794 46.27 78 46.27C80.206 46.27 82 48.064 82 50.27C82 52.476 80.206 54.27 78 54.27ZM78 48.27C76.897 48.27 76 49.167 76 50.27C76 51.373 76.897 52.27 78 52.27C79.103 52.27 80 51.373 80 50.27C80 49.167 79.103 48.27 78 48.27Z" fill="#D3BA4A"/>
<rect x="16" y="16.27" width="32" height="32" rx="16" fill="#D3BA4A"/>
<path d="M31.3401 30.5825V32.5513C31.3401 33.4054 31.2489 34.1424 31.0666 34.7622C30.8843 35.3768 30.6213 35.882 30.2776 36.2778C29.939 36.6685 29.5354 36.9575 29.0666 37.145C28.5979 37.3325 28.077 37.4263 27.5041 37.4263C27.0458 37.4263 26.6187 37.369 26.2229 37.2544C25.827 37.1346 25.4703 36.9497 25.1526 36.6997C24.8401 36.4497 24.5692 36.1346 24.3401 35.7544C24.1161 35.369 23.9442 34.9106 23.8244 34.3794C23.7046 33.8481 23.6447 33.2388 23.6447 32.5513V30.5825C23.6447 29.7284 23.7359 28.9966 23.9182 28.3872C24.1057 27.7726 24.3687 27.27 24.7072 26.8794C25.051 26.4888 25.4572 26.2023 25.926 26.02C26.3947 25.8325 26.9156 25.7388 27.4885 25.7388C27.9468 25.7388 28.3713 25.7987 28.7619 25.9185C29.1578 26.033 29.5145 26.2127 29.8322 26.4575C30.15 26.7023 30.4208 27.0174 30.6447 27.4028C30.8687 27.783 31.0406 28.2388 31.1604 28.77C31.2802 29.2961 31.3401 29.9002 31.3401 30.5825ZM29.0822 32.8481V30.2778C29.0822 29.8664 29.0588 29.507 29.0119 29.1997C28.9703 28.8924 28.9052 28.632 28.8166 28.4185C28.7281 28.1997 28.6187 28.0226 28.4885 27.8872C28.3583 27.7518 28.2098 27.6528 28.0432 27.5903C27.8765 27.5278 27.6916 27.4966 27.4885 27.4966C27.2333 27.4966 27.0067 27.5461 26.8088 27.645C26.6161 27.744 26.452 27.9028 26.3166 28.1216C26.1812 28.3351 26.077 28.6216 26.0041 28.981C25.9364 29.3351 25.9026 29.7674 25.9026 30.2778V32.8481C25.9026 33.2596 25.9234 33.6216 25.9651 33.9341C26.0119 34.2466 26.0796 34.5148 26.1682 34.7388C26.2619 34.9575 26.3713 35.1372 26.4963 35.2778C26.6265 35.4132 26.775 35.5122 26.9416 35.5747C27.1135 35.6372 27.301 35.6685 27.5041 35.6685C27.7541 35.6685 27.9755 35.619 28.1682 35.52C28.3661 35.4159 28.5328 35.2544 28.6682 35.0356C28.8088 34.8117 28.913 34.52 28.9807 34.1606C29.0484 33.8013 29.0822 33.3638 29.0822 32.8481ZM38.3557 25.8716V37.27H36.1057V28.4653L33.4026 29.3247V27.5513L38.1135 25.8716H38.3557Z" fill="white"/>
</g>
<defs>
<filter id="filter0_d_1_444" x="0" y="0.27002" width="128" height="128" filterUnits="userSpaceOnUse" color-interpolation-filters="sRGB">
<feFlood flood-opacity="0" result="BackgroundImageFix"/>
<feColorMatrix in="SourceAlpha" type="matrix" values="0 0 0 0 0 0 0 0 0 0 0 0 0 0 0 0 0 0 127 0" result="hardAlpha"/>
<feOffset/>
<feGaussianBlur stdDeviation="8"/>
<feComposite in2="hardAlpha" operator="out"/>
<feColorMatrix type="matrix" values="0 0 0 0 0 0 0 0 0 0 0 0 0 0 0 0 0 0 0.16 0"/>
<feBlend mode="normal" in2="BackgroundImageFix" result="effect1_dropShadow_1_444"/>
<feBlend mode="normal" in="SourceGraphic" in2="effect1_dropShadow_1_444" result="shape"/>
</filter>
</defs>
</svg>
