<svg width="128" height="129" viewBox="0 0 128 129" fill="none" xmlns="http://www.w3.org/2000/svg">
<g filter="url(#filter0_d_1_461)">
<rect x="16" y="16.27" width="96" height="96" rx="48" fill="white" shape-rendering="crispEdges"/>
<path d="M67 66.27H65V58.27H67V56.27H61V58.27H63V66.27H61V68.27H67V66.27Z" fill="#D3BA4A"/>
<path d="M89.3721 77.125L82.1941 70.527C83.3431 68.006 84.0001 65.216 84.0001 62.27C84.0001 51.242 75.0281 42.27 64.0001 42.27C52.9721 42.27 44.0001 51.242 44.0001 62.27C44.0001 65.387 44.7371 68.328 46.0151 70.96L38.6231 77.82C38.0311 78.365 37.8421 79.212 38.1421 79.978C38.4471 80.763 39.1851 81.27 40.0201 81.27H46.9971C47.1641 81.27 48.0001 81.3 48.0001 81.906V88.33C48.0001 89.097 48.4511 89.77 49.1791 90.09C49.4531 90.211 49.7441 90.269 50.0311 90.269C50.5411 90.269 51.0421 90.083 51.4271 89.728L59.9801 81.862C61.2791 82.128 62.6241 82.268 64.0011 82.268C65.3721 82.268 66.7111 82.128 68.0051 81.864L76.4701 89.712C76.8581 90.079 77.3711 90.27 77.8971 90.27C78.1951 90.27 78.4971 90.209 78.7841 90.084C79.5341 89.759 80.0001 89.076 80.0001 88.301V81.676C80.0001 81.075 80.4371 80.27 80.8861 80.27H87.9651C88.8471 80.27 89.6001 79.806 89.8841 79.087C90.1471 78.42 89.9541 77.67 89.3721 77.125ZM48.0511 63.27C48.5511 71.27 55.0001 77.719 63.0001 78.219V80.219C54.0001 79.713 46.5561 72.27 46.0511 63.27H48.0511ZM64.0001 48.27C71.7201 48.27 78.0001 54.55 78.0001 62.27C78.0001 69.99 71.7201 76.27 64.0001 76.27C56.2801 76.27 50.0001 69.99 50.0001 62.27C50.0001 54.55 56.2811 48.27 64.0001 48.27ZM65.0001 78.219C73.0001 77.719 79.4501 71.27 79.9491 63.27H81.9491C81.4441 72.27 74.0001 79.713 65.0001 80.219V78.219ZM81.9491 61.27H79.9491C79.4501 53.27 73.0001 46.82 65.0001 46.321V44.321C74.0001 44.826 81.4441 52.27 81.9491 61.27ZM63.0001 44.321V46.321C55.0001 46.82 48.5511 53.27 48.0511 61.27H46.0511C46.5561 52.27 54.0001 44.826 63.0001 44.321ZM50.0721 88.257C50.0511 88.276 50.0001 88.269 50.0001 88.291V81.906C50.0001 80.378 48.7381 79.269 46.9971 79.269L39.9811 79.288L47.0091 72.766C49.4561 76.712 53.2241 79.747 57.7051 81.238L50.0721 88.257ZM80.8861 78.27C79.1591 78.27 78.0001 80.031 78.0001 81.676L78.0251 88.227C77.9901 88.262 77.8711 88.285 77.8321 88.25L70.2761 81.245C74.9171 79.706 78.7971 76.511 81.2361 72.363L87.6591 78.27H80.8861Z" fill="#003153"/>
<path d="M41.493 70.619C40.502 67.951 40.001 65.142 40.001 62.27C40.001 49.036 50.767 38.27 64.001 38.27C77.235 38.27 88.001 49.036 88.001 62.27C88.001 65.142 87.499 67.951 86.509 70.618L84.634 69.922C85.54 67.477 86 64.903 86 62.27C86 50.139 76.131 40.27 64 40.27C51.869 40.27 42 50.139 42 62.27C42 64.904 42.46 67.479 43.367 69.924L41.493 70.619Z" fill="#D3BA4A"/>
<rect x="16" y="16.27" width="32" height="32" rx="16" fill="#D3BA4A"/>
<path d="M31.3401 30.5825V32.5513C31.3401 33.4054 31.2489 34.1424 31.0666 34.7622C30.8843 35.3768 30.6213 35.882 30.2776 36.2778C29.939 36.6685 29.5354 36.9575 29.0666 37.145C28.5979 37.3325 28.077 37.4263 27.5041 37.4263C27.0458 37.4263 26.6187 37.369 26.2229 37.2544C25.827 37.1346 25.4703 36.9497 25.1526 36.6997C24.8401 36.4497 24.5692 36.1346 24.3401 35.7544C24.1161 35.369 23.9442 34.9106 23.8244 34.3794C23.7046 33.8481 23.6447 33.2388 23.6447 32.5513V30.5825C23.6447 29.7284 23.7359 28.9966 23.9182 28.3872C24.1057 27.7726 24.3687 27.27 24.7072 26.8794C25.051 26.4888 25.4572 26.2023 25.926 26.02C26.3947 25.8325 26.9156 25.7388 27.4885 25.7388C27.9468 25.7388 28.3713 25.7987 28.7619 25.9185C29.1578 26.033 29.5145 26.2127 29.8322 26.4575C30.15 26.7023 30.4208 27.0174 30.6447 27.4028C30.8687 27.783 31.0406 28.2388 31.1604 28.77C31.2802 29.2961 31.3401 29.9002 31.3401 30.5825ZM29.0822 32.8481V30.2778C29.0822 29.8664 29.0588 29.507 29.0119 29.1997C28.9703 28.8924 28.9052 28.632 28.8166 28.4185C28.7281 28.1997 28.6187 28.0226 28.4885 27.8872C28.3583 27.7518 28.2098 27.6528 28.0432 27.5903C27.8765 27.5278 27.6916 27.4966 27.4885 27.4966C27.2333 27.4966 27.0067 27.5461 26.8088 27.645C26.6161 27.744 26.452 27.9028 26.3166 28.1216C26.1812 28.3351 26.077 28.6216 26.0041 28.981C25.9364 29.3351 25.9026 29.7674 25.9026 30.2778V32.8481C25.9026 33.2596 25.9234 33.6216 25.9651 33.9341C26.0119 34.2466 26.0796 34.5148 26.1682 34.7388C26.2619 34.9575 26.3713 35.1372 26.4963 35.2778C26.6265 35.4132 26.775 35.5122 26.9416 35.5747C27.1135 35.6372 27.301 35.6685 27.5041 35.6685C27.7541 35.6685 27.9755 35.619 28.1682 35.52C28.3661 35.4159 28.5328 35.2544 28.6682 35.0356C28.8088 34.8117 28.913 34.52 28.9807 34.1606C29.0484 33.8013 29.0822 33.3638 29.0822 32.8481ZM40.6526 35.5122V37.27H32.8713V35.77L36.551 31.8247C36.9208 31.4132 37.2125 31.0513 37.426 30.7388C37.6395 30.4211 37.7932 30.1372 37.8869 29.8872C37.9859 29.632 38.0354 29.3898 38.0354 29.1606C38.0354 28.8169 37.9781 28.5226 37.8635 28.2778C37.7489 28.0278 37.5796 27.8351 37.3557 27.6997C37.1369 27.5643 36.8661 27.4966 36.5432 27.4966C36.1994 27.4966 35.9026 27.5799 35.6526 27.7466C35.4078 27.9132 35.2203 28.145 35.0901 28.4419C34.9651 28.7388 34.9026 29.0747 34.9026 29.4497H32.6447C32.6447 28.7726 32.8062 28.1528 33.1291 27.5903C33.452 27.0226 33.9078 26.5721 34.4963 26.2388C35.0848 25.9002 35.7828 25.731 36.5901 25.731C37.3869 25.731 38.0588 25.8612 38.6057 26.1216C39.1578 26.3768 39.5744 26.7466 39.8557 27.231C40.1421 27.7101 40.2854 28.283 40.2854 28.9497C40.2854 29.3247 40.2255 29.6919 40.1057 30.0513C39.9859 30.4054 39.814 30.7596 39.5901 31.1138C39.3713 31.4627 39.1057 31.8169 38.7932 32.1763C38.4807 32.5356 38.1343 32.908 37.7541 33.2935L35.7776 35.5122H40.6526Z" fill="white"/>
</g>
<defs>
<filter id="filter0_d_1_461" x="0" y="0.27002" width="128" height="128" filterUnits="userSpaceOnUse" color-interpolation-filters="sRGB">
<feFlood flood-opacity="0" result="BackgroundImageFix"/>
<feColorMatrix in="SourceAlpha" type="matrix" values="0 0 0 0 0 0 0 0 0 0 0 0 0 0 0 0 0 0 127 0" result="hardAlpha"/>
<feOffset/>
<feGaussianBlur stdDeviation="8"/>
<feComposite in2="hardAlpha" operator="out"/>
<feColorMatrix type="matrix" values="0 0 0 0 0 0 0 0 0 0 0 0 0 0 0 0 0 0 0.16 0"/>
<feBlend mode="normal" in2="BackgroundImageFix" result="effect1_dropShadow_1_461"/>
<feBlend mode="normal" in="SourceGraphic" in2="effect1_dropShadow_1_461" result="shape"/>
</filter>
</defs>
</svg>
